<?xml version="1.0" encoding="utf-8"?>
<!-- Generator: Adobe Illustrator 25.1.0, SVG Export Plug-In . SVG Version: 6.00 Build 0)  -->
<svg version="1.1" id="Layer_1" xmlns="http://www.w3.org/2000/svg" xmlns:xlink="http://www.w3.org/1999/xlink" x="0px" y="0px"
	 viewBox="0 0 1080 1080" style="enable-background:new 0 0 1080 1080;" xml:space="preserve">
<style type="text/css">
	.st0{opacity:0.5;}
	.st1{fill:#2AFF30;stroke:#FFFFFF;stroke-width:0.2627;stroke-miterlimit:10;}
	.st2{opacity:0.8;fill:#00385F;enable-background:new    ;}
	.st3{opacity:0.25;fill:none;stroke:#000000;stroke-width:6;stroke-miterlimit:10;enable-background:new    ;}
	.st4{fill:none;}
	.st5{opacity:0.25;fill:#2AFF30;stroke:#FFFFFF;stroke-width:0.2627;stroke-miterlimit:10;enable-background:new    ;}
	.st6{opacity:0.25;fill:#00385F;enable-background:new    ;}
</style>
<image style="overflow:visible;opacity:0.8;enable-background:new    ;" width="8256" height="5504" xlink:href="B89B82F2.jpeg"  transform="matrix(0.1308 0 0 0.1962 0 0)">
</image>
<g class="st0">
	<path class="st1" d="M324.3,604.8c-0.2,3.4-1.5,5.1-3.7,4.9l-11.2-0.7c-2.2-0.1-3.3-1.9-3-5.4l0.9-13.5l5.6,0.4L312,602l6.8,0.4
		l0.7-11.1l-10.1-16.7c-0.7-1.2-1-2.8-0.9-4.6l0.8-12.5c0.2-3.5,1.5-5.1,3.7-5l11.2,0.7c2.3,0.1,3.3,1.9,3.1,5.3l-0.8,12.6l-5.6-0.4
		l0.7-10.6l-6.8-0.4l-0.6,10.2l10.1,16.7c0.7,1.2,1,2.8,0.9,4.7L324.3,604.8z"/>
	<path class="st1" d="M344,611.2l-5.5-0.3l1.9-29.5l-5.1-0.2l-1.9,29.4l-5.5-0.3l3.6-56.4l5.5,0.3l-1.4,21.3
		c1.3-0.2,2.6-0.4,3.9-0.7c1.6-0.3,2.9-0.4,3.9-0.3c2,0.1,2.9,1.7,2.7,4.6L344,611.2z"/>
	<path class="st1" d="M363.9,607.9c-0.2,3-1.3,4.4-3.3,4.3l-9.8-0.6c-2-0.1-3-1.7-2.8-4.7l1.8-27.4c0.2-3,1.3-4.4,3.4-4.3l9.8,0.6
		c2,0.1,2.9,1.7,2.7,4.7L363.9,607.9z M358.8,605.3l1.5-22.7l-5.2-0.3l-1.5,22.7L358.8,605.3z"/>
	<path class="st1" d="M384,592.5l-5.4-0.3l0.5-8.3l-4.3-0.1l-1.9,29.4l-5.5-0.3l2.3-36.4l5.5,0.3l-0.1,1.3c1.1-0.2,2.3-0.5,3.4-0.7
		c1.4-0.3,2.5-0.4,3.4-0.3c2,0.1,2.9,1.7,2.7,4.6L384,592.5z"/>
	<path class="st1" d="M395.9,614.5l-6-0.4c-2-0.1-2.9-1.7-2.7-4.7l1.6-24.9l-2.6-0.2l0.5-7l2.6,0.2l0.6-9.9l5.4,0.3l-0.6,9.9
		l3.5,0.2l-0.5,7l-3.5-0.2l-1.4,22.4l3.6,0.2L395.9,614.5z"/>
	<path class="st1" d="M427.7,611.4c-0.2,3.4-1.5,5.1-3.7,4.9l-11.6-0.7c-2.2-0.1-3.2-1.9-3-5.4l3-46.1c0.2-3.5,1.4-5.1,3.6-5
		l11.6,0.7c2.3,0.2,3.3,2,3.1,5.4l-0.8,13.2l-5.5-0.4l0.7-11.1l-7.2-0.5l-2.7,41.9l7.2,0.5l0.8-11.9l5.5,0.4L427.7,611.4z"/>
	<path class="st1" d="M447.5,613.3c-0.2,3-1.3,4.4-3.3,4.3l-9.8-0.6c-2-0.1-3-1.7-2.8-4.7l1.8-27.4c0.2-3,1.3-4.4,3.4-4.3l9.8,0.6
		c2,0.1,2.9,1.7,2.7,4.7L447.5,613.3z M442.3,610.6l1.5-22.7l-5.2-0.3l-1.5,22.7L442.3,610.6z"/>
	<path class="st1" d="M467,619.1l-5.4-0.3l0.1-1.3c-1.3,0.2-2.6,0.5-3.9,0.7c-1.6,0.3-2.9,0.4-3.9,0.3c-2-0.1-2.9-1.7-2.7-4.7
		l2.1-32.1l5.4,0.3l-1.9,29.6l5.2,0.2l1.9-29.4l5.4,0.3L467,619.1z"/>
	<path class="st1" d="M487.3,599.1l-5.4-0.3l0.5-8.3l-4.3-0.1l-1.9,29.4l-5.5-0.3l2.3-36.4l5.5,0.3l-0.1,1.3
		c1.1-0.2,2.3-0.5,3.4-0.7c1.4-0.3,2.5-0.4,3.4-0.3c2,0.1,2.9,1.7,2.7,4.6L487.3,599.1z"/>
	<path class="st1" d="M504.3,616.9c-0.2,3-1.3,4.4-3.3,4.3l-9.2-0.6c-2-0.1-2.9-1.7-2.7-4.7l0.5-7.8l5.2,0.3l-0.4,6.1l4.8,0.3
		l0.4-5.8l-7.9-8c-1-1.1-1.5-2.4-1.4-4.1l0.5-8.5c0.2-3,1.3-4.4,3.4-4.3l9.1,0.6c2,0.1,2.9,1.7,2.7,4.7l-0.5,7.3l-5.2-0.3l0.4-5.6
		l-4.8-0.3l-0.3,5.3l7.9,7.9c1,1,1.5,2.4,1.4,4.1L504.3,616.9z"/>
	<path class="st1" d="M523.5,618.2c-0.2,3-1.3,4.4-3.4,4.3l-9.4-0.6c-2-0.1-3-1.7-2.8-4.7l1.8-27.4c0.2-3,1.3-4.4,3.4-4.3l9.4,0.6
		c2,0.1,3,1.7,2.8,4.7l-0.9,13.4l-1.7,2.2l-8.8-0.6l-0.7,10.2l5.1,0.3l0.4-6.1l5.2,0.3L523.5,618.2z M519.4,600.7l0.6-8.7l-5.1-0.3
		l-0.6,8.7L519.4,600.7z"/>
	<path class="st1" d="M319.3,698.6l-5.5-0.3l-0.4-10.8l-7-0.5l-1.8,10.6l-5.5-0.3l0-0.1l10.8-55.9l5.9,0.4L319.3,698.6z M313,680.2
		l-1.1-25.6l-4.4,25.3L313,680.2z"/>
	<path class="st1" d="M338.1,699.8l-5.5-0.3l1.9-29.5l-5.1-0.2l-1.9,29.4l-5.5-0.3l2.3-36.4l5.5,0.3l-0.1,1.3
		c1.3-0.2,2.6-0.5,3.9-0.7c1.6-0.3,2.9-0.4,3.9-0.3c2,0.1,2.9,1.7,2.7,4.6L338.1,699.8z"/>
	<path class="st1" d="M357.9,701.1l-5.5-0.3l1.9-29.5l-5.1-0.2l-1.9,29.4l-5.5-0.3l2.3-36.4l5.5,0.3l-0.1,1.3
		c1.3-0.2,2.6-0.5,3.9-0.7c1.6-0.3,2.9-0.4,3.9-0.3c2,0.1,2.9,1.7,2.7,4.6L357.9,701.1z"/>
	<path class="st1" d="M377.8,697.8c-0.2,3-1.3,4.4-3.3,4.3l-9.8-0.6c-2-0.1-3-1.7-2.8-4.7l1.8-27.4c0.2-3,1.3-4.4,3.4-4.3l9.8,0.6
		c2,0.1,2.9,1.7,2.7,4.7L377.8,697.8z M372.6,695.1l1.5-22.7l-5.2-0.3l-1.5,22.7L372.6,695.1z"/>
	<path class="st1" d="M397.3,703.6l-5.4-0.3l0.1-1.3c-1.3,0.2-2.6,0.5-3.9,0.7c-1.6,0.3-2.9,0.4-3.9,0.3c-2-0.1-2.9-1.7-2.7-4.7
		l2.1-32.1l5.4,0.3l-1.9,29.6l5.2,0.2l1.9-29.4l5.4,0.3L397.3,703.6z"/>
	<path class="st1" d="M417.2,704.9l-5.5-0.3l1.9-29.5l-5.1-0.2l-1.9,29.4l-5.5-0.3l2.3-36.4l5.5,0.3l-0.1,1.3
		c1.3-0.2,2.6-0.5,3.9-0.7c1.6-0.3,2.9-0.4,3.9-0.3c2,0.1,2.9,1.7,2.7,4.6L417.2,704.9z"/>
	<path class="st1" d="M436.8,701.6c-0.2,3-1.3,4.4-3.3,4.3l-9.5-0.6c-2-0.1-3-1.7-2.8-4.7l1.8-27.4c0.2-3,1.3-4.4,3.4-4.3l9.5,0.6
		c2,0.1,2.9,1.7,2.7,4.7l-0.5,8.7l-5.3-0.3l0.4-6.3l-4.9-0.3l-1.5,22.7l4.9,0.3l0.5-7l5.3,0.3L436.8,701.6z"/>
	<path class="st1" d="M466.8,708l-5.4-0.3l1.9-29.5l-5.1-0.2l-1.9,29.4l-5.4-0.3l1.9-29.5l-5.1-0.2l-1.9,29.4l-5.5-0.3l2.3-36.4
		l5.5,0.3l-0.1,1.3c1.3-0.2,2.6-0.5,3.9-0.7c1.6-0.3,2.9-0.4,3.9-0.3c1.3,0.1,2,0.7,2.3,1.8c1.4-0.2,2.7-0.5,4.1-0.7
		c1.8-0.3,3.1-0.5,4.1-0.4c2,0.1,2.9,1.7,2.7,4.6L466.8,708z"/>
	<path class="st1" d="M486.4,704.8c-0.2,3-1.3,4.4-3.4,4.3l-9.4-0.6c-2-0.1-3-1.7-2.8-4.7l1.8-27.4c0.2-3,1.3-4.4,3.4-4.3l9.4,0.6
		c2,0.1,3,1.7,2.8,4.7l-0.9,13.4l-1.6,2.2l-8.8-0.6l-0.6,10.2l5.1,0.3l0.4-6.1l5.2,0.3L486.4,704.8z M482.3,687.3l0.6-8.7l-5.1-0.3
		l-0.6,8.7L482.3,687.3z"/>
	<path class="st1" d="M506,710.5l-5.5-0.3l1.9-29.5l-5.1-0.2l-1.9,29.4l-5.5-0.3l2.3-36.4l5.5,0.3l-0.1,1.3c1.3-0.2,2.6-0.5,3.9-0.7
		c1.6-0.3,2.9-0.4,3.9-0.3c2,0.1,2.9,1.7,2.7,4.6L506,710.5z"/>
	<path class="st1" d="M520.1,711.5l-6-0.4c-2-0.1-2.9-1.7-2.7-4.7l1.6-24.9l-2.6-0.2l0.5-7l2.6,0.2l0.6-9.9l5.4,0.3l-0.6,9.9
		l3.5,0.2l-0.5,7l-3.5-0.2l-1.4,22.4l3.7,0.2L520.1,711.5z"/>
</g>
<g>
	<path class="st2" d="M308.7,80.6h-8.5V24h8.5V80.6z"/>
	<path class="st2" d="M339.4,80.6h-8.3V51l-7.8,0.1v29.4H315V44.1h8.3v1.3c1.9-0.3,3.8-0.6,5.8-0.9c2.4-0.4,4.3-0.6,5.8-0.6
		c3,0,4.5,1.5,4.5,4.4L339.4,80.6L339.4,80.6z"/>
	<path class="st2" d="M360.8,80.6h-9.2c-3.1,0-4.6-1.5-4.6-4.5V51.1h-3.9v-7h3.9v-9.9h8.2v9.9h5.3v7h-5.3v22.4h5.5V80.6z"/>
	<path class="st2" d="M388.2,59.3H380V51l-6.5,0.1v29.4h-8.3V44.1h8.3v1.3c1.7-0.3,3.4-0.6,5.1-0.9c2-0.4,3.8-0.5,5.1-0.5
		c3,0,4.5,1.5,4.5,4.4L388.2,59.3L388.2,59.3z"/>
	<path class="st2" d="M416.7,76.1c0,3-1.5,4.5-4.6,4.5h-14.8c-3.1,0-4.7-1.5-4.7-4.5V48.6c0-3,1.5-4.5,4.7-4.5h14.8
		c3.1,0,4.6,1.5,4.6,4.5V76.1z M408.6,73.7V51h-7.8v22.7H408.6z"/>
	<path class="st2" d="M446.7,80.6h-8.2v-1.3c-5.6,1-8.7,1.5-9.4,1.5c-2.1,0-3.7-0.6-4.9-1.8c-1.2-1.2-1.8-2.9-1.8-5V51.4
		c0-3,1.1-5,3.2-6.2c1.5-0.9,3.9-1.3,7-1.3c0.7,0,1.7,0,3,0.1c1.3,0,2.3,0.1,2.8,0.1V24h8.2L446.7,80.6L446.7,80.6z M438.4,73.4V51
		h-5.1c-1.8,0-2.8,0.9-2.8,2.8v17.4c0,1.8,0.9,2.7,2.6,2.7C433.6,73.8,435.3,73.7,438.4,73.4z"/>
	<path class="st2" d="M476.7,80.6h-8.2v-1.3c-1.9,0.3-3.8,0.6-5.8,0.9c-2.3,0.4-4.3,0.5-5.8,0.5c-3,0-4.5-1.5-4.5-4.5V44.1h8.2v29.6
		l7.8-0.2V44.1h8.2L476.7,80.6L476.7,80.6z"/>
	<path class="st2" d="M506.1,76.1c0,3-1.5,4.5-4.6,4.5h-14.3c-3.1,0-4.7-1.5-4.7-4.5V48.6c0-3,1.5-4.5,4.7-4.5h14.3
		c3.1,0,4.6,1.5,4.6,4.5v8.7H498V51h-7.4v22.7h7.4v-7h8.1V76.1z"/>
	<path class="st2" d="M527.5,80.6h-9.2c-3.1,0-4.6-1.5-4.6-4.5V51.1h-3.9v-7h3.9v-9.9h8.2v9.9h5.3v7H522v22.4h5.5V80.6z"/>
	<path class="st2" d="M540.3,38.8h-8.3v-8.5h8.3V38.8z M540.3,80.6h-8.1V44.1h8.1V80.6z"/>
	<path class="st2" d="M570.3,76.1c0,3-1.5,4.5-4.6,4.5h-14.8c-3.1,0-4.7-1.5-4.7-4.5V48.6c0-3,1.5-4.5,4.7-4.5h14.8
		c3.1,0,4.6,1.5,4.6,4.5V76.1z M562.2,73.7V51h-7.8v22.7H562.2z"/>
	<path class="st2" d="M600.3,80.6H592V51l-7.8,0.1v29.4H576V44.1h8.3v1.3c1.9-0.3,3.8-0.6,5.8-0.9c2.4-0.4,4.3-0.6,5.8-0.6
		c3,0,4.5,1.5,4.5,4.4L600.3,80.6L600.3,80.6z"/>
	<path class="st2" d="M636.8,80.6h-9.2c-3.1,0-4.6-1.5-4.6-4.5V51.1h-3.9v-7h3.9v-9.9h8.2v9.9h5.3v7h-5.3v22.4h5.5V80.6z"/>
	<path class="st2" d="M665.3,76.1c0,3-1.5,4.5-4.6,4.5h-14.8c-3.1,0-4.7-1.5-4.7-4.5V48.6c0-3,1.5-4.5,4.7-4.5h14.8
		c3.1,0,4.6,1.5,4.6,4.5V76.1z M657.2,73.7V51h-7.8v22.7H657.2z"/>
	<path class="st2" d="M701.8,80.6h-9.2c-3.1,0-4.6-1.5-4.6-4.5V51.1h-3.9v-7h3.9v-9.9h8.2v9.9h5.3v7h-5.3v22.4h5.5V80.6z"/>
	<path class="st2" d="M730.5,80.6h-8.3V51l-7.8,0.1v29.4h-8.3V24h8.3v21.4c1.9-0.3,3.8-0.6,5.8-0.9c2.4-0.4,4.4-0.6,5.8-0.6
		c3,0,4.5,1.5,4.5,4.4L730.5,80.6L730.5,80.6z"/>
	<path class="st2" d="M759.8,76.1c0,3-1.5,4.5-4.7,4.5h-14.3c-3.1,0-4.7-1.5-4.7-4.5V48.6c0-3,1.5-4.5,4.7-4.5h14.3
		c3.1,0,4.7,1.5,4.7,4.5V62l-2.3,2.3h-13.4v10.2h7.8v-6.1h7.9L759.8,76.1L759.8,76.1z M751.9,58.9v-8.7h-7.8v8.7H751.9z"/>
	<path class="st2" d="M796.6,31.2h-6.1v12.9h5.3v7h-5.3v29.5h-8.2V51.1h-3.8v-7h3.8V28.5c0-3,1.5-4.5,4.6-4.5h9.7V31.2z"/>
	<path class="st2" d="M822.5,59.3h-8.2V51l-6.5,0.1v29.4h-8.3V44.1h8.3v1.3c1.7-0.3,3.4-0.6,5.1-0.9c2-0.4,3.8-0.5,5.1-0.5
		c3,0,4.5,1.5,4.5,4.4L822.5,59.3L822.5,59.3z"/>
	<path class="st2" d="M850.5,76.1c0,3-1.5,4.5-4.7,4.5h-14.3c-3.1,0-4.7-1.5-4.7-4.5V48.6c0-3,1.5-4.5,4.7-4.5h14.3
		c3.1,0,4.7,1.5,4.7,4.5V62l-2.3,2.3h-13.4v10.2h7.8v-6.1h7.9L850.5,76.1L850.5,76.1z M842.6,58.9v-8.7h-7.8v8.7H842.6z"/>
	<path class="st2" d="M879.9,76.1c0,3-1.5,4.5-4.7,4.5H861c-3.1,0-4.7-1.5-4.7-4.5V48.6c0-3,1.5-4.5,4.7-4.5h14.3
		c3.1,0,4.7,1.5,4.7,4.5V62l-2.3,2.3h-13.4v10.2h7.8v-6.1h7.9L879.9,76.1L879.9,76.1z M872,58.9v-8.7h-7.8v8.7H872z"/>
	<path class="st2" d="M924.3,76.1c0,3-1.5,4.5-4.6,4.5h-14.3c-3.1,0-4.7-1.5-4.7-4.5V48.6c0-3,1.5-4.5,4.7-4.5h14.3
		c3.1,0,4.6,1.5,4.6,4.5v8.7h-8.1V51h-7.4v22.7h7.4v-7h8.1V76.1z"/>
	<path class="st2" d="M954,76.1c0,3-1.5,4.5-4.6,4.5h-14.8c-3.1,0-4.7-1.5-4.7-4.5V48.6c0-3,1.5-4.5,4.7-4.5h14.8
		c3.1,0,4.6,1.5,4.6,4.5V76.1z M946,73.7V51h-7.8v22.7H946z"/>
	<path class="st2" d="M984.1,80.6h-8.2v-1.3c-1.9,0.3-3.8,0.6-5.8,0.9c-2.3,0.4-4.3,0.5-5.8,0.5c-3,0-4.5-1.5-4.5-4.5V44.1h8.2v29.6
		l7.8-0.2V44.1h8.2L984.1,80.6L984.1,80.6z"/>
	<path class="st2" d="M1012.8,59.3h-8.2V51l-6.5,0.1v29.4h-8.3V44.1h8.3v1.3c1.7-0.3,3.4-0.6,5.1-0.9c2-0.4,3.8-0.5,5.1-0.5
		c3,0,4.5,1.5,4.5,4.4L1012.8,59.3L1012.8,59.3z"/>
	<path class="st2" d="M1040.2,76.1c0,3-1.5,4.5-4.6,4.5h-13.9c-3.1,0-4.6-1.5-4.6-4.5v-7.8h7.9v6.1h7.3v-5.8l-12.7-7.5
		c-1.7-1-2.5-2.3-2.5-4v-8.5c0-3,1.5-4.5,4.7-4.5h13.8c3.1,0,4.6,1.5,4.6,4.5v7.3h-7.8v-5.6h-7.3v5.3l12.7,7.4c1.7,1,2.5,2.3,2.5,4
		L1040.2,76.1L1040.2,76.1z"/>
	<path class="st2" d="M1069.4,76.1c0,3-1.6,4.5-4.7,4.5h-14.3c-3.1,0-4.7-1.5-4.7-4.5V48.6c0-3,1.6-4.5,4.7-4.5h14.3
		c3.1,0,4.7,1.5,4.7,4.5V62l-2.3,2.3h-13.4v10.2h7.8v-6.1h7.9L1069.4,76.1L1069.4,76.1z M1061.5,58.9v-8.7h-7.8v8.7H1061.5z"/>
</g>
<g>
	<path class="st2" d="M296.4,164.4h-11.2v-4.9h11.2V164.4z"/>
	<path class="st2" d="M318.6,169.2c0,2.2-0.6,3.9-1.9,5.1s-3,1.8-5.2,1.8h-11.2v-36.7h11.2c2.2,0,3.9,0.6,5.2,1.9s1.9,2.9,1.9,5.1
		V169.2z M313.1,168.3v-21.1c0-2.1-1.1-3.1-3.2-3.1h-4.1v27.3h3.9C312,171.4,313.1,170.4,313.1,168.3z"/>
	<path class="st2" d="M337.3,162.3H332v-5.4l-4.2,0.1v19.1h-5.4v-23.7h5.4v0.9c1.1-0.2,2.2-0.4,3.3-0.6c1.3-0.2,2.4-0.4,3.3-0.4
		c2,0,2.9,1,2.9,2.9L337.3,162.3L337.3,162.3z"/>
	<path class="st2" d="M368.8,176.1h-5.4l-1.1-7h-6.9l-1.1,7h-5.4V176l7.1-36.6h5.8L368.8,176.1z M361.5,164.4l-2.7-16.6l-2.7,16.6
		H361.5z"/>
	<path class="st2" d="M397.6,176.1h-5.3v-19.2l-5,0.1v19.1h-5.3v-19.2l-5,0.1v19.1h-5.4v-23.7h5.4v0.9c1.3-0.2,2.5-0.4,3.7-0.6
		c1.5-0.2,2.8-0.4,3.8-0.4c1.2,0,2,0.4,2.4,1.1c1.3-0.2,2.6-0.4,3.9-0.6c1.7-0.3,3.1-0.4,4-0.4c2,0,2.9,1,2.9,2.9V176.1z"/>
	<path class="st2" d="M406.7,149.1h-5.4v-5.5h5.4V149.1z M406.7,176.1h-5.3v-23.7h5.3V176.1z"/>
	<path class="st2" d="M425.5,162.3h-5.3v-5.4l-4.2,0.1v19.1h-5.4v-23.7h5.4v0.9c1.1-0.2,2.2-0.4,3.3-0.6c1.3-0.2,2.4-0.4,3.3-0.4
		c2,0,2.9,1,2.9,2.9L425.5,162.3L425.5,162.3z"/>
	<path class="st2" d="M465.4,139.4l-5.4,36.7h-5.4l-3.3-20.8c0-0.8-0.1-1.9-0.2-3.4c0,0.8-0.1,1.9-0.2,3.4l-3.3,20.8h-5.4l-5.4-36.7
		h5.5l2.8,21.8c0,0.8,0.1,1.9,0.2,3.4c0-0.8,0.1-1.9,0.2-3.4l3.2-21.8h4.5l3.2,21.8c0,0.8,0.1,1.9,0.2,3.4c0-0.8,0.1-1.9,0.2-3.4
		l2.8-21.8L465.4,139.4L465.4,139.4z"/>
	<path class="st2" d="M473.5,149.1h-5.4v-5.5h5.4V149.1z M473.5,176.1h-5.3v-23.7h5.3V176.1z"/>
	<path class="st2" d="M482.8,176.1h-5.3v-36.7h5.3V176.1z"/>
	<path class="st2" d="M492,176.1h-5.3v-36.7h5.3V176.1z"/>
	<path class="st2" d="M515.8,176.1h-6c-2,0-3-1-3-2.9V157h-2.5v-4.6h2.5V146h5.3v6.4h3.5v4.6h-3.5v14.5h3.6V176.1z"/>
	<path class="st2" d="M533.9,176.1h-5.1v-0.8c-1.2,0.2-2.4,0.4-3.7,0.6c-1.6,0.2-2.8,0.4-3.6,0.4c-2,0-2.9-1-2.9-2.9v-8.5
		c0-1.9,1-2.9,3-2.9h7.2v-5.4h-5.1v3.4h-4.8v-4.4c0-1.9,1-2.9,3-2.9h9.1c2,0,3,1,3,2.9L533.9,176.1L533.9,176.1z M528.8,171.9v-6.4
		h-5.1v6.5L528.8,171.9z"/>
	<path class="st2" d="M543,176.1h-5.3v-36.7h5.3V176.1z"/>
	<path class="st2" d="M562.7,176.1h-5.7l-4.7-10.9v10.9h-5.4v-36.7h5.4v22l4.2-9h5.6v0.1l-5.5,10.8L562.7,176.1z"/>
	<path class="st2" d="M589.8,176.1h-5.1v-0.8c-1.2,0.2-2.4,0.4-3.7,0.6c-1.6,0.2-2.8,0.4-3.6,0.4c-2,0-2.9-1-2.9-2.9v-8.5
		c0-1.9,1-2.9,3-2.9h7.2v-5.4h-5.1v3.4h-4.8v-4.4c0-1.9,1-2.9,3-2.9h9.1c2,0,3,1,3,2.9L589.8,176.1L589.8,176.1z M584.7,171.9v-6.4
		h-5.1v6.5L584.7,171.9z"/>
	<path class="st2" d="M609.3,171.4c0,1.5-0.5,2.6-1.3,3.5s-2.1,1.3-3.6,1.3h-10.9v-36.7h5.4v13.9c1.3-0.2,2.5-0.4,3.8-0.6
		c1.6-0.3,2.8-0.4,3.8-0.4c2,0,2.9,1,2.9,2.9L609.3,171.4L609.3,171.4z M603.9,169.9v-13l-5,0.1v14.6h3.3
		C603.3,171.7,603.9,171.1,603.9,169.9z"/>
	<path class="st2" d="M628.6,173.2c0,1.9-1,2.9-3,2.9H616c-2,0-3-1-3-2.9v-17.8c0-1.9,1-2.9,3-2.9h9.6c2,0,3,1,3,2.9V173.2z
		 M623.4,171.7v-14.7h-5.1v14.7H623.4z"/>
	<path class="st2" d="M648.1,176.1h-5.3v-0.8c-1.2,0.2-2.5,0.4-3.7,0.6c-1.5,0.2-2.8,0.4-3.8,0.4c-2,0-2.9-1-2.9-2.9v-20.9h5.3v19.2
		l5.1-0.1v-19.1h5.3L648.1,176.1L648.1,176.1z"/>
	<path class="st2" d="M662,176.1h-6c-2,0-3-1-3-2.9V157h-2.5v-4.6h2.5V146h5.3v6.4h3.5v4.6h-3.5v14.5h3.6L662,176.1L662,176.1z"/>
	<path class="st2" d="M680.1,149.1h-5.4v-5.5h5.4V149.1z M680,176.1h-5.3v-23.7h5.3V176.1z"/>
	<path class="st2" d="M694.1,176.1h-6c-2,0-3-1-3-2.9V157h-2.5v-4.6h2.5V146h5.3v6.4h3.5v4.6h-3.5v14.5h3.6L694.1,176.1L694.1,176.1
		z"/>
	<path class="st2" d="M702.1,176.1h-5.3v-5.7h5.3V176.1z"/>
	<path class="st2" d="M296.4,222.1h-11.2v-4.9h11.2V222.1z"/>
	<path class="st2" d="M322.5,233.7h-5.3v-18.1c0-0.9,0.1-2.3,0.3-4l-4.7,18.7H310l-4.8-18.7c0.2,1.7,0.3,3.1,0.3,4v18.1h-5.3V197
		h5.2l5.8,20.3c0.1,0.2,0.1,0.8,0.1,1.7c0-0.4,0-0.9,0.1-1.7l5.8-20.3h5.2L322.5,233.7L322.5,233.7z"/>
	<path class="st2" d="M341.7,230.8c0,1.9-1,2.9-3,2.9h-9.3c-2,0-3-1-3-2.9V213c0-1.9,1-2.9,3-2.9h9.3c2,0,3,1,3,2.9v8.7l-1.5,1.5
		h-8.7v6.6h5v-3.9h5.1L341.7,230.8L341.7,230.8z M336.6,219.7V214h-5v5.7H336.6z"/>
	<path class="st2" d="M361.3,233.7h-5.4v-19.2l-5,0.1v19.1h-5.4V210h5.4v0.9c1.3-0.2,2.5-0.4,3.7-0.6c1.5-0.3,2.8-0.4,3.8-0.4
		c2,0,2.9,1,2.9,2.9L361.3,233.7L361.3,233.7z"/>
	<path class="st2" d="M375.2,233.7h-6c-2,0-3-1-3-2.9v-16.2h-2.5v-4.6h2.5v-6.4h5.3v6.4h3.5v4.6h-3.5v14.5h3.6L375.2,233.7
		L375.2,233.7z"/>
	<path class="st2" d="M383.5,206.6h-5.4v-5.5h5.4V206.6z M383.4,233.7h-5.3v-23.7h5.3V233.7z"/>
	<path class="st2" d="M402.9,230.8c0,1.9-1,2.9-3,2.9h-9.6c-2,0-3-1-3-2.9V213c0-1.9,1-2.9,3-2.9h9.6c2,0,3,1,3,2.9V230.8z
		 M397.6,229.3v-14.7h-5.1v14.7H397.6z"/>
	<path class="st2" d="M422.4,233.7H417v-19.2l-5,0.1v19.1h-5.4V210h5.4v0.9c1.3-0.2,2.5-0.4,3.7-0.6c1.5-0.3,2.8-0.4,3.8-0.4
		c2,0,2.9,1,2.9,2.9L422.4,233.7L422.4,233.7z"/>
	<path class="st2" d="M453.5,230.8c0,1.9-1,2.9-3,2.9h-9c-2,0-3-1-3-2.9v-5.1h5.1v4h4.7v-3.8l-8.2-4.9c-1.1-0.6-1.6-1.5-1.6-2.6V213
		c0-1.9,1-2.9,3-2.9h8.9c2,0,3,1,3,2.9v4.8h-5.1v-3.7h-4.7v3.4l8.2,4.8c1.1,0.6,1.6,1.5,1.6,2.6L453.5,230.8L453.5,230.8z"/>
	<path class="st2" d="M467.3,233.7h-6c-2,0-3-1-3-2.9v-16.2h-2.5v-4.6h2.5v-6.4h5.3v6.4h3.5v4.6h-3.5v14.5h3.6L467.3,233.7
		L467.3,233.7z"/>
	<path class="st2" d="M485.8,230.8c0,1.9-1,2.9-3,2.9h-9.6c-2,0-3-1-3-2.9V213c0-1.9,1-2.9,3-2.9h9.6c2,0,3,1,3,2.9V230.8z
		 M480.5,229.3v-14.7h-5.1v14.7H480.5z"/>
	<path class="st2" d="M504.4,219.9h-5.3v-5.4l-4.2,0.1v19.1h-5.4v-23.7h5.4v0.9c1.1-0.2,2.2-0.4,3.3-0.6c1.3-0.2,2.4-0.4,3.3-0.4
		c2,0,2.9,1,2.9,2.9L504.4,219.9L504.4,219.9z"/>
	<path class="st2" d="M512.8,206.6h-5.4v-5.5h5.4V206.6z M512.7,233.7h-5.3v-23.7h5.3V233.7z"/>
	<path class="st2" d="M531.9,230.8c0,1.9-1,2.9-3,2.9h-9.3c-2,0-3-1-3-2.9V213c0-1.9,1-2.9,3-2.9h9.3c2,0,3,1,3,2.9v8.7l-1.5,1.5
		h-8.7v6.6h5v-3.9h5.1L531.9,230.8L531.9,230.8z M526.7,219.7V214h-5v5.7H526.7z"/>
	<path class="st2" d="M550.5,230.8c0,1.9-1,2.9-3,2.9h-9c-2,0-3-1-3-2.9v-5.1h5.1v4h4.7v-3.8l-8.2-4.9c-1.1-0.6-1.6-1.5-1.6-2.6V213
		c0-1.9,1-2.9,3-2.9h8.9c2,0,3,1,3,2.9v4.8h-5.1v-3.7h-4.7v3.4l8.2,4.8c1.1,0.6,1.6,1.5,1.6,2.6L550.5,230.8L550.5,230.8z"/>
	<path class="st2" d="M576.8,233.7h-6c-2,0-3-1-3-2.9v-16.2h-2.5v-4.6h2.5v-6.4h5.3v6.4h3.5v4.6h-3.5v14.5h3.6L576.8,233.7
		L576.8,233.7z"/>
	<path class="st2" d="M595.5,233.7h-5.4v-19.2l-5,0.1v19.1h-5.4V197h5.4v13.9c1.3-0.2,2.5-0.4,3.8-0.6c1.6-0.3,2.8-0.4,3.8-0.4
		c2,0,2.9,1,2.9,2.9V233.7z"/>
	<path class="st2" d="M614.4,233.7h-5.1v-0.8c-1.2,0.2-2.4,0.4-3.7,0.6c-1.6,0.2-2.8,0.4-3.6,0.4c-2,0-2.9-1-2.9-2.9v-8.5
		c0-1.9,1-2.9,3-2.9h7.2V214h-5.1v3.4h-4.8V213c0-1.9,1-2.9,3-2.9h9.1c2,0,3,1,3,2.9L614.4,233.7L614.4,233.7z M609.3,229.4v-6.4
		h-5.1v6.5L609.3,229.4z"/>
	<path class="st2" d="M628.3,233.7h-6c-2,0-3-1-3-2.9v-16.2h-2.5v-4.6h2.5v-6.4h5.3v6.4h3.5v4.6h-3.5v14.5h3.6L628.3,233.7
		L628.3,233.7z"/>
	<path class="st2" d="M659.5,233.7h-5.4v-19.2l-5,0.1v19.1h-5.4V197h5.4v13.9c1.3-0.2,2.5-0.4,3.8-0.6c1.6-0.3,2.8-0.4,3.8-0.4
		c2,0,2.9,1,2.9,2.9V233.7z"/>
	<path class="st2" d="M678.4,233.7h-5.1v-0.8c-1.2,0.2-2.4,0.4-3.7,0.6c-1.6,0.2-2.8,0.4-3.6,0.4c-2,0-2.9-1-2.9-2.9v-8.5
		c0-1.9,1-2.9,3-2.9h7.2V214h-5.1v3.4h-4.8V213c0-1.9,1-2.9,3-2.9h9.1c2,0,3,1,3,2.9L678.4,233.7L678.4,233.7z M673.3,229.4v-6.4
		h-5.1v6.5L673.3,229.4z"/>
	<path class="st2" d="M697.9,229c0,1.9-0.7,3.3-2.1,4c-1,0.6-2.5,0.8-4.5,0.8c-0.5,0-1.1,0-2-0.1s-1.5-0.1-1.8-0.1v8.6h-5.4V210h5.4
		v0.9c1.3-0.2,2.5-0.4,3.8-0.6c1.6-0.3,2.8-0.4,3.8-0.4c2,0,2.9,1,2.9,2.9V229z M692.5,227.5v-13l-5,0.1v14.6h3.3
		C692,229.3,692.5,228.7,692.5,227.5z"/>
	<path class="st2" d="M717.4,229c0,1.9-0.7,3.3-2.1,4c-1,0.6-2.5,0.8-4.5,0.8c-0.5,0-1.1,0-2-0.1s-1.5-0.1-1.8-0.1v8.6h-5.4V210h5.4
		v0.9c1.3-0.2,2.5-0.4,3.8-0.6c1.6-0.3,2.8-0.4,3.8-0.4c2,0,2.9,1,2.9,2.9V229z M712,227.5v-13l-5,0.1v14.6h3.3
		C711.4,229.3,712,228.7,712,227.5z"/>
	<path class="st2" d="M736.3,230.8c0,1.9-1,2.9-3,2.9h-9.3c-2,0-3-1-3-2.9V213c0-1.9,1-2.9,3-2.9h9.3c2,0,3,1,3,2.9v8.7l-1.5,1.5
		h-8.7v6.6h5v-3.9h5.1L736.3,230.8L736.3,230.8z M731.2,219.7V214h-5v5.7H731.2z"/>
	<path class="st2" d="M755.9,233.7h-5.4v-19.2l-5,0.1v19.1h-5.4V210h5.4v0.9c1.3-0.2,2.5-0.4,3.7-0.6c1.5-0.3,2.8-0.4,3.8-0.4
		c2,0,2.9,1,2.9,2.9V233.7z"/>
	<path class="st2" d="M774.9,230.8c0,1.9-1,2.9-3,2.9h-9.3c-2,0-3-1-3-2.9V213c0-1.9,1-2.9,3-2.9h9.3c2,0,3,1,3,2.9v8.7l-1.5,1.5
		h-8.7v6.6h5v-3.9h5.1L774.9,230.8L774.9,230.8z M769.8,219.7V214h-5v5.7H769.8z"/>
	<path class="st2" d="M794.3,233.7H789v-0.8c-3.6,0.6-5.7,1-6.1,1c-1.3,0-2.4-0.4-3.2-1.2s-1.2-1.9-1.2-3.2v-14.6
		c0-1.9,0.7-3.3,2.1-4c1-0.6,2.5-0.8,4.5-0.8c0.5,0,1.1,0,2,0.1s1.5,0.1,1.8,0.1v-13h5.3L794.3,233.7L794.3,233.7z M789,229.1v-14.6
		h-3.3c-1.2,0-1.8,0.6-1.8,1.8v11.3c0,1.2,0.6,1.7,1.7,1.7C785.9,229.4,787,229.3,789,229.1z"/>
	<path class="st2" d="M826.3,233.7H821v-0.8c-3.6,0.6-5.7,1-6.1,1c-1.3,0-2.4-0.4-3.2-1.2s-1.2-1.9-1.2-3.2v-14.6
		c0-1.9,0.7-3.3,2.1-4c1-0.6,2.5-0.8,4.5-0.8c0.5,0,1.1,0,2,0.1s1.5,0.1,1.8,0.1v-13h5.3L826.3,233.7L826.3,233.7z M821,229.1v-14.6
		h-3.3c-1.2,0-1.8,0.6-1.8,1.8v11.3c0,1.2,0.6,1.7,1.7,1.7C817.8,229.4,819,229.3,821,229.1z"/>
	<path class="st2" d="M845.8,233.7h-5.3v-0.8c-1.2,0.2-2.5,0.4-3.7,0.6c-1.5,0.2-2.8,0.4-3.8,0.4c-2,0-2.9-1-2.9-2.9v-20.9h5.3v19.2
		l5.1-0.1v-19.1h5.3L845.8,233.7L845.8,233.7z"/>
	<path class="st2" d="M864.5,219.9h-5.3v-5.4l-4.2,0.1v19.1h-5.4v-23.7h5.4v0.9c1.1-0.2,2.2-0.4,3.3-0.6c1.3-0.2,2.4-0.4,3.3-0.4
		c2,0,2.9,1,2.9,2.9V219.9z"/>
	<path class="st2" d="M872.8,206.6h-5.4v-5.5h5.4V206.6z M872.8,233.7h-5.3v-23.7h5.3V233.7z"/>
	<path class="st2" d="M892.4,233.7H887v-19.2l-5,0.1v19.1h-5.4V210h5.4v0.9c1.3-0.2,2.5-0.4,3.7-0.6c1.5-0.3,2.8-0.4,3.8-0.4
		c2,0,2.9,1,2.9,2.9V233.7z"/>
	<path class="st2" d="M911.8,239.4c0,1.9-1,2.9-3,2.9h-9.3c-2,0-3-1-3-2.9v-3.8h5.2v2.8h4.8v-4.9h-5.5c-1.5,0-2.7-0.4-3.6-1.3
		s-1.3-2-1.3-3.5v-14.5c0-1.4,0.4-2.4,1.2-3.2s1.8-1.2,3.2-1.2c0.7,0,2.7,0.3,6.1,1v-0.9h5.3L911.8,239.4L911.8,239.4z M906.5,229.3
		v-14.6c-1.8-0.2-2.9-0.3-3.3-0.3c-1.2,0-1.7,0.6-1.7,1.7v11.3c0,1.2,0.6,1.8,1.8,1.8H906.5z"/>
	<path class="st2" d="M946.4,230.4c0,2.2-1.1,3.4-3.3,3.4h-11.4c-2.2,0-3.3-1.1-3.3-3.4v-29.9c0-2.3,1.1-3.4,3.3-3.4H943
		c2.2,0,3.3,1.1,3.3,3.4v8.6h-5.5v-7.2h-7.1V229h7.1v-7.7h5.5L946.4,230.4L946.4,230.4z"/>
	<path class="st2" d="M969,230.4c0,2.2-1.1,3.4-3.3,3.4h-11.9c-2.2,0-3.3-1.1-3.3-3.4v-29.9c0-2.3,1.1-3.4,3.3-3.4h11.9
		c2.2,0,3.3,1.1,3.3,3.4V230.4z M963.6,229v-27.3H956V229H963.6z"/>
	<path class="st2" d="M991.6,197l-7,36.7h-5.5l-7-36.7h5.5l4.1,25.1c0,0.7,0.1,1.8,0.1,3.1c0-0.7,0-1.8,0.1-3.1l4.1-25.1H991.6z"/>
	<path class="st2" d="M1000.1,233.7h-5.5V197h5.5V233.7z"/>
	<path class="st2" d="M1022.7,226.8c0,2.2-0.6,3.9-1.9,5.1s-3,1.8-5.2,1.8h-11.2V197h11.2c2.2,0,3.9,0.6,5.2,1.9s1.9,2.9,1.9,5.1
		V226.8z M1017.2,225.9v-21.1c0-2.1-1.1-3.1-3.2-3.1h-4.1V229h3.9C1016.1,229,1017.2,228,1017.2,225.9z"/>
	<path class="st2" d="M1037.4,222.1h-11.2v-4.9h11.2V222.1z"/>
	<path class="st2" d="M1048.1,233.7h-5.4v-25.9h-2.1v-0.7l2.8-10.1h4.7V233.7z"/>
	<path class="st2" d="M1070.3,230.4c0,2.2-1.1,3.4-3.3,3.4h-11c-2.2,0-3.3-1.1-3.3-3.4v-7.8h5.4v6.4h6.8v-11h-9.1
		c-2.2,0-3.3-1.1-3.3-3.3v-14.3c0-2.3,1.1-3.4,3.3-3.4h11.2c2.2,0,3.3,1.1,3.3,3.4L1070.3,230.4L1070.3,230.4z M1064.9,213.3v-11.6
		h-7v11.6H1064.9z"/>
	<path class="st2" d="M295.8,259.3h-3.9v8.3h3.4v4.6h-3.4v19.1h-5.3v-19.1h-2.4v-4.6h2.4v-10.1c0-1.9,1-2.9,3-2.9h6.3V259.3z"/>
	<path class="st2" d="M313.2,288.4c0,2-1,2.9-3,2.9h-9.6c-2,0-3-1-3-2.9v-17.8c0-2,1-2.9,3-2.9h9.6c2,0,3,1,3,2.9V288.4z M308,286.9
		v-14.7h-5.1v14.7H308z"/>
	<path class="st2" d="M331.9,277.5h-5.3v-5.4l-4.2,0.1v19.1h-5.4v-23.7h5.4v0.9c1.1-0.2,2.2-0.4,3.3-0.6c1.3-0.2,2.4-0.4,3.3-0.4
		c2,0,2.9,1,2.9,2.9L331.9,277.5L331.9,277.5z"/>
	<path class="st2" d="M360.3,286.6c0,1.9-0.7,3.3-2.1,4c-1,0.5-2.5,0.8-4.5,0.8c-0.5,0-1.1,0-2,0s-1.5,0-1.8,0v8.6h-5.4v-32.3h5.4
		v0.9c1.3-0.2,2.5-0.4,3.8-0.6c1.6-0.3,2.8-0.4,3.8-0.4c2,0,2.9,1,2.9,2.9V286.6z M354.9,285.1v-13l-5,0.1v14.6h3.3
		C354.3,286.9,354.9,286.3,354.9,285.1z"/>
	<path class="st2" d="M379.3,288.4c0,2-1,2.9-3,2.9H367c-2,0-3-1-3-2.9v-17.8c0-2,1-2.9,3-2.9h9.3c2,0,3,1,3,2.9v8.7l-1.5,1.5h-8.7
		v6.6h5v-3.9h5.1L379.3,288.4L379.3,288.4z M374.1,277.3v-5.7h-5v5.7H374.1z"/>
	<path class="st2" d="M398.6,288.4c0,2-1,2.9-3,2.9H386c-2,0-3-1-3-2.9v-17.8c0-2,1-2.9,3-2.9h9.6c2,0,3,1,3,2.9V288.4z
		 M393.4,286.9v-14.7h-5.1v14.7H393.4z"/>
	<path class="st2" d="M418.1,286.6c0,1.9-0.7,3.3-2.1,4c-1,0.5-2.5,0.8-4.5,0.8c-0.5,0-1.1,0-2,0s-1.5,0-1.8,0v8.6h-5.4v-32.3h5.4
		v0.9c1.3-0.2,2.5-0.4,3.8-0.6c1.6-0.3,2.8-0.4,3.8-0.4c2,0,2.9,1,2.9,2.9V286.6z M412.7,285.1v-13l-5,0.1v14.6h3.3
		C412.2,286.9,412.7,286.3,412.7,285.1z"/>
	<path class="st2" d="M427.2,291.3h-5.3v-36.7h5.3V291.3z"/>
	<path class="st2" d="M446.3,288.4c0,2-1,2.9-3,2.9H434c-2,0-3-1-3-2.9v-17.8c0-2,1-2.9,3-2.9h9.3c2,0,3,1,3,2.9v8.7l-1.5,1.5h-8.7
		v6.6h5v-3.9h5.1L446.3,288.4L446.3,288.4z M441.2,277.3v-5.7h-5v5.7H441.2z"/>
	<path class="st2" d="M483.2,267.6l-5.1,23.7h-4.7l-2.5-13.1l-2.5,13.1h-4.6l-5.1-23.7h5.1l2.6,15.1l2.5-15.1h4.1l2.5,15.1l2.6-15.1
		H483.2z"/>
	<path class="st2" d="M501.5,291.3h-5.4v-19.2l-5,0.1v19.1h-5.4v-36.7h5.4v13.9c1.3-0.2,2.5-0.4,3.8-0.6c1.6-0.3,2.8-0.4,3.8-0.4
		c2,0,2.9,1,2.9,2.9L501.5,291.3L501.5,291.3z"/>
	<path class="st2" d="M520.8,288.4c0,2-1,2.9-3,2.9h-9.6c-2,0-3-1-3-2.9v-17.8c0-2,1-2.9,3-2.9h9.6c2,0,3,1,3,2.9V288.4z
		 M515.6,286.9v-14.7h-5.1v14.7H515.6z"/>
	<path class="st2" d="M549.2,288.4c0,2-1,2.9-3,2.9h-9c-2,0-3-1-3-2.9v-5.1h5.1v4h4.7v-3.8l-8.2-4.9c-1.1-0.6-1.6-1.5-1.6-2.6v-5.5
		c0-2,1-2.9,3-2.9h8.9c2,0,3,1,3,2.9v4.8h-5.1v-3.7h-4.7v3.4l8.2,4.8c1.1,0.6,1.6,1.5,1.6,2.6L549.2,288.4L549.2,288.4z"/>
	<path class="st2" d="M563,291.3h-6c-2,0-3-1-3-2.9v-16.2h-2.5v-4.6h2.5v-6.4h5.3v6.4h3.5v4.6h-3.5v14.5h3.6L563,291.3L563,291.3z"
		/>
	<path class="st2" d="M580.8,277.5h-5.3v-5.4l-4.2,0.1v19.1h-5.4v-23.7h5.4v0.9c1.1-0.2,2.2-0.4,3.3-0.6c1.3-0.2,2.4-0.4,3.3-0.4
		c2,0,2.9,1,2.9,2.9V277.5z"/>
	<path class="st2" d="M599.4,291.3h-5.3v-0.8c-1.2,0.2-2.5,0.4-3.7,0.6c-1.5,0.2-2.8,0.4-3.8,0.4c-2,0-2.9-1-2.9-2.9v-20.9h5.3v19.2
		l5.1-0.1v-19.1h5.3L599.4,291.3L599.4,291.3z"/>
	<path class="st2" d="M618.9,297c0,2-1,2.9-3,2.9h-9.3c-2,0-3-1-3-2.9v-3.8h5.2v2.8h4.8v-4.9H608c-1.5,0-2.7-0.4-3.6-1.3
		s-1.3-2-1.3-3.5v-14.5c0-1.4,0.4-2.4,1.2-3.2s1.8-1.2,3.2-1.2c0.7,0,2.7,0.3,6.1,1v-0.9h5.3L618.9,297L618.9,297z M613.5,286.9
		v-14.5c-1.8-0.2-2.9-0.3-3.3-0.3c-1.2,0-1.7,0.6-1.7,1.7v11.3c0,1.2,0.6,1.8,1.8,1.8H613.5z"/>
	<path class="st2" d="M638.3,297c0,2-1,2.9-3,2.9H626c-2,0-3-1-3-2.9v-3.8h5.2v2.8h4.8v-4.9h-5.5c-1.5,0-2.7-0.4-3.6-1.3
		s-1.3-2-1.3-3.5v-14.5c0-1.4,0.4-2.4,1.2-3.2s1.8-1.2,3.2-1.2c0.7,0,2.7,0.3,6.1,1v-0.9h5.3L638.3,297L638.3,297z M633,286.9v-14.5
		c-1.8-0.2-2.9-0.3-3.3-0.3c-1.2,0-1.7,0.6-1.7,1.7v11.3c0,1.2,0.6,1.8,1.8,1.8H633z"/>
	<path class="st2" d="M647.5,291.3h-5.3v-36.7h5.3V291.3z"/>
	<path class="st2" d="M666.6,288.4c0,2-1,2.9-3,2.9h-9.3c-2,0-3-1-3-2.9v-17.8c0-2,1-2.9,3-2.9h9.3c2,0,3,1,3,2.9v8.7l-1.5,1.5h-8.7
		v6.6h5v-3.9h5.1L666.6,288.4L666.6,288.4z M661.5,277.3v-5.7h-5v5.7H661.5z"/>
	<path class="st2" d="M686.1,291.3h-5.3v-0.8c-3.6,0.6-5.7,1-6.1,1c-1.3,0-2.4-0.4-3.2-1.2s-1.2-1.9-1.2-3.2v-14.6
		c0-1.9,0.7-3.3,2.1-4c1-0.6,2.5-0.8,4.5-0.8c0.5,0,1.1,0,2,0s1.5,0,1.8,0v-13h5.3L686.1,291.3L686.1,291.3z M680.7,286.7v-14.6
		h-3.3c-1.2,0-1.8,0.6-1.8,1.8v11.3c0,1.2,0.6,1.7,1.7,1.7C677.6,287,678.7,286.9,680.7,286.7z"/>
	<path class="st2" d="M705,264.3h-5.4v-5.5h5.4V264.3z M705,291.3h-5.3v-23.7h5.3V291.3z"/>
	<path class="st2" d="M724.6,291.3h-5.4v-19.2l-5,0.1v19.1h-5.4v-23.7h5.4v0.9c1.3-0.2,2.5-0.4,3.7-0.6c1.5-0.3,2.8-0.4,3.8-0.4
		c2,0,2.9,1,2.9,2.9V291.3z"/>
	<path class="st2" d="M748.3,291.3h-6c-2,0-3-1-3-2.9v-16.2h-2.5v-4.6h2.5v-6.4h5.3v6.4h3.5v4.6h-3.5v14.5h3.6L748.3,291.3
		L748.3,291.3z"/>
	<path class="st2" d="M766.9,291.3h-5.4v-19.2l-5,0.1v19.1h-5.4v-36.7h5.4v13.9c1.3-0.2,2.5-0.4,3.8-0.6c1.6-0.3,2.8-0.4,3.8-0.4
		c2,0,2.9,1,2.9,2.9V291.3z"/>
	<path class="st2" d="M785.9,288.4c0,2-1,2.9-3,2.9h-9.3c-2,0-3-1-3-2.9v-17.8c0-2,1-2.9,3-2.9h9.3c2,0,3,1,3,2.9v8.7l-1.5,1.5h-8.7
		v6.6h5v-3.9h5.1L785.9,288.4L785.9,288.4z M780.8,277.3v-5.7h-5v5.7H780.8z"/>
	<path class="st2" d="M795.1,264.3h-5.4v-5.5h5.4V264.3z M795.1,291.3h-5.3v-23.7h5.3V291.3z"/>
	<path class="st2" d="M813.8,277.5h-5.3v-5.4l-4.2,0.1v19.1h-5.4v-23.7h5.4v0.9c1.1-0.2,2.2-0.4,3.3-0.6c1.3-0.2,2.4-0.4,3.3-0.4
		c2,0,2.9,1,2.9,2.9V277.5z"/>
	<path class="st2" d="M841.8,288.4c0,2-1,2.9-3,2.9h-9.3c-2,0-3-1-3-2.9v-17.8c0-2,1-2.9,3-2.9h9.3c2,0,3,1,3,2.9v5.6h-5.2v-4.1
		h-4.8v14.7h4.8v-4.5h5.2V288.4z"/>
	<path class="st2" d="M861.1,288.4c0,2-1,2.9-3,2.9h-9.6c-2,0-3-1-3-2.9v-17.8c0-2,1-2.9,3-2.9h9.6c2,0,3,1,3,2.9V288.4z
		 M855.8,286.9v-14.7h-5.1v14.7H855.8z"/>
	<path class="st2" d="M880.6,291.3h-5.4v-19.2l-5,0.1v19.1h-5.4v-23.7h5.4v0.9c1.3-0.2,2.5-0.4,3.7-0.6c1.5-0.3,2.8-0.4,3.8-0.4
		c2,0,2.9,1,2.9,2.9V291.3z"/>
	<path class="st2" d="M894.5,291.3h-6c-2,0-3-1-3-2.9v-16.2h-2.5v-4.6h2.5v-6.4h5.3v6.4h3.5v4.6h-3.5v14.5h3.6L894.5,291.3
		L894.5,291.3z"/>
	<path class="st2" d="M912.3,277.5H907v-5.4l-4.2,0.1v19.1h-5.4v-23.7h5.4v0.9c1.1-0.2,2.2-0.4,3.3-0.6c1.3-0.2,2.4-0.4,3.3-0.4
		c2,0,2.9,1,2.9,2.9V277.5z"/>
	<path class="st2" d="M930.4,291.3h-5.1v-0.8c-1.2,0.2-2.4,0.4-3.7,0.6c-1.6,0.2-2.8,0.4-3.6,0.4c-2,0-2.9-1-2.9-2.9V280
		c0-2,1-2.9,3-2.9h7.2v-5.4h-5.1v3.4h-4.8v-4.4c0-2,1-2.9,3-2.9h9.1c2,0,3,1,3,2.9L930.4,291.3L930.4,291.3z M925.3,287v-6.4h-5.1
		v6.5L925.3,287z"/>
	<path class="st2" d="M949.4,288.4c0,2-1,2.9-3,2.9h-9.3c-2,0-3-1-3-2.9v-17.8c0-2,1-2.9,3-2.9h9.3c2,0,3,1,3,2.9v5.6h-5.2v-4.1
		h-4.8v14.7h4.8v-4.5h5.2V288.4z"/>
	<path class="st2" d="M963.3,291.3h-6c-2,0-3-1-3-2.9v-16.2h-2.5v-4.6h2.5v-6.4h5.3v6.4h3.5v4.6h-3.5v14.5h3.6L963.3,291.3
		L963.3,291.3z"/>
</g>
<line class="st3" x1="929.1" y1="217" x2="1064.7" y2="216.4"/>
<line class="st4" x1="1143.9" y1="345.6" x2="1340.3" y2="345.6"/>
<rect x="300.3" y="86.2" class="st5" width="769.1" height="4.6"/>
<rect x="410.4" y="511.4" transform="matrix(6.389721e-02 -0.998 0.998 6.389721e-02 -233.9619 992.8008)" class="st6" width="3.7" height="219.4"/>
<rect x="407.6" y="604.3" transform="matrix(6.389721e-02 -0.998 0.998 6.389721e-02 -326.7272 1073.7231)" class="st6" width="2.8" height="213.4"/>
</svg>
