<?xml version="1.0" encoding="utf-8"?>
<!-- Generator: Adobe Illustrator 25.1.0, SVG Export Plug-In . SVG Version: 6.00 Build 0)  -->
<svg version="1.1" id="Layer_1" xmlns="http://www.w3.org/2000/svg" xmlns:xlink="http://www.w3.org/1999/xlink" x="0px" y="0px"
	 viewBox="0 0 1080 1080" style="enable-background:new 0 0 1080 1080;" xml:space="preserve">
<style type="text/css">
	.st0{fill:#041A24;}
	.st1{fill:#334952;}
	.st2{opacity:0.5;fill:#FFFFFF;}
</style>
<rect x="371.1" y="450.8" class="st0" width="200" height="89.2"/>
<rect x="371.1" y="340" class="st0" width="200" height="110.8"/>
<image style="overflow:visible;opacity:0.5;" width="6000" height="3375" xlink:href="28CA892F.jpg"  transform="matrix(3.333319e-02 0 0 2.930137e-02 371.1498 441.1079)">
</image>
<rect x="371.1" y="428.1" class="st1" width="200" height="22.7"/>
<g>
	<path class="st2" d="M391.3,438.6c0.4,0.3,0.8,0.7,1.2,1.1c0.4,0.4,0.6,0.8,0.9,1.2c0.2,0.3,0.7,0.5,1.1,0.5h0.1v1h-0.2
		c-0.6,0-0.9-0.2-1.3-0.7l0,0c-0.1,0.6-0.5,1.1-1,1.1c-1,0-1.9-1-1.9-2.4c-0.6,0.5-0.9,0.9-0.9,1.2c0,0.3,0.1,0.8,0.4,1.7
		c0.4,1.3,0.8,2.5,0.8,2.9c0,0.4-0.1,0.8-0.2,1.1h-0.1c-0.2-0.8-0.5-1.8-0.8-2.7c-0.4-1-0.6-1.9-0.6-2.4c0-0.3,0.1-0.6,0.1-0.9
		c0.1-0.5,0.4-1,0.8-1.3C390.3,439.5,390.9,439,391.3,438.6L391.3,438.6z M390.8,440.2c0,0.5,0.2,0.9,0.6,1.2
		c0.2,0.2,0.5,0.4,0.9,0.4c0.3,0,0.5-0.1,0.5-0.3c0-0.1-0.1-0.3-0.3-0.6c-0.3-0.4-0.6-0.8-1.3-1.3
		C391.1,439.8,390.8,440,390.8,440.2z"/>
	<path class="st2" d="M394.8,441.4c0.6,0,1.2-0.2,1.3-0.7l0.2-0.8l0.5-0.4l0,0.1c-0.1,0.4-0.2,0.7-0.2,0.9c0,0.3,0.1,0.5,0.3,0.6
		c0.2,0.2,0.5,0.3,0.9,0.3h0.1v1h-0.2c-0.7,0-1.3-0.2-1.6-0.8h0c-0.3,0.5-0.9,0.8-1.5,0.8h-0.1c-0.4,0-0.5-0.3-0.5-0.5
		c0-0.2,0.1-0.5,0.5-0.5H394.8z M395.7,445.4c-0.3-0.3-0.6-0.5-0.9-0.8c0.2-0.3,0.4-0.5,0.6-0.7c0.3,0.2,0.6,0.5,0.9,0.8
		C396.1,445,395.9,445.2,395.7,445.4z M397.2,445.3c-0.3-0.3-0.6-0.5-0.9-0.8c0.2-0.3,0.4-0.5,0.6-0.7c0.3,0.2,0.6,0.5,0.9,0.8
		C397.5,444.9,397.4,445.1,397.2,445.3z"/>
	<path class="st2" d="M403.9,442.4h-0.2c-0.9,0-1.4-0.5-2-1.2c-0.3-0.3-0.5-0.6-0.7-0.8h0c0,1.2-0.7,2.1-2.8,2.1h-0.2
		c-0.4,0-0.5-0.3-0.5-0.5c0-0.2,0.1-0.5,0.5-0.5h0.3c0.6,0,1.3-0.1,1.8-0.4c0.2-0.1,0.4-0.3,0.4-0.4c0-0.2-0.1-0.3-0.2-0.5
		c-0.3-0.7-1.1-1.5-1.9-2.3c-0.2-0.2-0.4-0.4-0.5-0.5c0-0.1-0.1-0.3-0.1-0.4c0-0.2,0.1-0.4,0.2-0.7c0.1-0.1,0.2-0.2,0.3-0.3
		c0.8-0.5,2.6-1.1,4.7-1.8l0,0c-0.2,0.3-0.4,0.6-0.6,0.9c-0.5,0.1-1.1,0.3-1.7,0.6c-0.9,0.3-1.8,0.7-2.3,1v0
		c0.4,0.3,0.9,0.5,1.2,0.6l-0.2,0.4c0.8,0.7,1.8,1.8,2.8,3c0.4,0.5,0.9,0.8,1.5,0.8h0.1V442.4z"/>
	<path class="st2" d="M408.5,440c-0.9-0.3-1.7-0.5-2.4-0.5c-0.4,0-0.8,0.1-1,0.4l0.1,0.4l-0.2,0.7h-0.1l-0.4-1
		c0.1-0.8,0.7-1.4,1.6-1.4c0.5,0,1.3,0.2,2.5,0.7c0.4,0.1,0.8,0.3,1.3,0.3h0.7l0,0l-0.5,0.8c-0.6,0-1,0.1-1.3,0.3l-1.3,0.8
		c-1.1,0.7-2.1,1-3.3,1h-0.3c-0.4,0-0.5-0.3-0.5-0.5c0-0.2,0.1-0.5,0.5-0.5h0.5C405.6,441.4,406.9,441,408.5,440L408.5,440z
		 M409.3,440.5L409.3,440.5c0.1,0.7,0.6,0.9,1.4,0.9h0.2v1h-0.2c-1,0-1.6-0.3-1.6-1.3c0-0.1,0-0.3,0-0.4L409.3,440.5z"/>
	<path class="st2" d="M411.1,441.4c0.6,0,1.2-0.2,1.3-0.7l0.2-0.8l0.5-0.4l0,0.1c-0.1,0.4-0.2,0.7-0.2,0.9c0,0.3,0.1,0.5,0.3,0.6
		c0.2,0.2,0.5,0.3,0.9,0.3h0.1v1h-0.2c-0.7,0-1.3-0.2-1.6-0.8h0c-0.3,0.5-0.9,0.8-1.5,0.8h-0.1c-0.4,0-0.5-0.3-0.5-0.5
		c0-0.2,0.1-0.5,0.5-0.5H411.1z M411.9,438.5c-0.3-0.3-0.6-0.5-0.9-0.8c0.2-0.3,0.4-0.5,0.6-0.7c0.3,0.2,0.6,0.5,0.9,0.8
		C412.3,438.1,412.1,438.3,411.9,438.5z M413.4,438.4c-0.3-0.3-0.6-0.5-0.9-0.8c0.2-0.3,0.4-0.5,0.6-0.7c0.3,0.2,0.6,0.5,0.9,0.8
		C413.7,438,413.6,438.2,413.4,438.4z"/>
	<path class="st2" d="M414.5,441.4c0.3,0,0.6-0.1,0.9-0.2c0.2-0.1,0.4-0.4,0.4-0.9c0-1.5-0.1-2.9-0.2-4.6l0-0.4l0.7-0.7l0,0
		c0.1,1.8,0.2,3.6,0.2,6c0,0.3,0.2,0.9,1.1,0.9h0.1v1h-0.2c-0.7,0-1.2-0.2-1.5-0.8h0c-0.2,0.4-0.7,0.8-1.5,0.8h-0.1
		c-0.4,0-0.5-0.3-0.5-0.5c0-0.2,0.1-0.5,0.5-0.5H414.5z"/>
	<path class="st2" d="M417.8,441.4c0.2,0,0.5,0,0.9-0.2c0.3-0.2,0.4-0.4,0.4-0.8c0-1.2-0.1-2.5-0.2-3.9c0-0.3-0.1-0.7-0.1-0.9
		c0-0.2,0.1-0.3,0.2-0.5c0.1-0.1,0.3-0.3,0.4-0.4l0.1,0c0,0.5,0.2,1.1,0.6,1.7c-0.1,0.1-0.3,0.3-0.5,0.4c0,0.9,0.1,1.8,0.1,2.6
		c0,0.8-0.1,1.5-0.3,1.9c-0.2,0.4-0.3,0.7-0.7,0.9c-0.3,0.2-0.7,0.2-1,0.2h-0.1c-0.4,0-0.5-0.3-0.5-0.5c0-0.2,0.1-0.5,0.5-0.5H417.8
		z"/>
	<path class="st2" d="M425.6,441.7c-0.8,0-1.4-0.3-1.4-0.9c0-0.2,0.1-0.5,0.3-0.9c0.3-0.7,1.1-1.4,2.4-2.1l0-0.6
		c0.2-0.2,0.4-0.4,0.6-0.6h0.1c0,1.2,0,2.4,0,3.5c0,0.5,0.1,0.9,0.3,1.1c0.2,0.2,0.5,0.2,0.8,0.2h0.2v1h-0.2c-0.7,0-1.3-0.2-1.6-1.1
		C426.7,441.5,426.2,441.7,425.6,441.7z M427,438.6c-1.4,0.7-2.1,1.3-2.1,1.7c0,0.3,0.5,0.4,1,0.4c0.3,0,0.7-0.1,1.1-0.2L427,438.6z
		 M426.1,436c-0.3-0.3-0.6-0.5-0.9-0.8c0.2-0.3,0.4-0.5,0.6-0.7c0.3,0.2,0.6,0.5,0.9,0.8C426.4,435.6,426.3,435.8,426.1,436z
		 M427.5,435.9c-0.3-0.3-0.6-0.5-0.9-0.8c0.2-0.3,0.4-0.5,0.6-0.7c0.3,0.2,0.6,0.5,0.9,0.8C427.9,435.5,427.7,435.7,427.5,435.9z"/>
	<path class="st2" d="M429,441.4c0.6,0,1.2-0.2,1.3-0.7l0.2-0.8l0.5-0.4l0,0.1c-0.1,0.4-0.2,0.7-0.2,0.9c0,0.3,0.1,0.5,0.3,0.6
		c0.2,0.2,0.5,0.3,0.9,0.3h0.1v1h-0.2c-0.7,0-1.3-0.2-1.6-0.8h0c-0.3,0.5-0.9,0.8-1.5,0.8h-0.1c-0.4,0-0.5-0.3-0.5-0.5
		c0-0.2,0.1-0.5,0.5-0.5H429z M429.9,445.4c-0.3-0.3-0.6-0.5-0.9-0.8c0.2-0.3,0.4-0.5,0.6-0.7c0.3,0.2,0.6,0.5,0.9,0.8
		C430.2,445,430.1,445.2,429.9,445.4z M431.3,445.3c-0.3-0.3-0.6-0.5-0.9-0.8c0.2-0.3,0.4-0.5,0.6-0.7c0.3,0.2,0.6,0.5,0.9,0.8
		C431.7,444.9,431.6,445.1,431.3,445.3z"/>
	<path class="st2" d="M432.4,441.4c0.6,0,1.2,0,1.5-0.1c0.3-0.1,0.4-0.2,0.4-0.3c0-0.4-0.4-1.1-0.8-1.9c0.2-0.3,0.4-0.6,0.6-0.9h0
		c0.3,0.6,0.8,1.6,0.8,2.3c0,0.6-0.2,1-0.5,1.4c-0.3,0.3-0.9,0.5-2,0.5h-0.1c-0.4,0-0.5-0.3-0.5-0.5c0-0.2,0.1-0.5,0.5-0.5H432.4z
		 M433.8,443.8c0.3,0.2,0.6,0.5,0.9,0.8c-0.2,0.3-0.4,0.5-0.6,0.7c-0.3-0.3-0.6-0.5-0.9-0.8C433.4,444.3,433.6,444.1,433.8,443.8z"
		/>
	<path class="st2" d="M438.7,441.6c-0.9,0-1.7-0.4-1.7-1.4c0-0.5,0.2-0.9,0.5-1.3c0.3-0.4,0.7-0.6,1.1-0.6c0.4,0,0.9,0.3,1.1,0.9
		c0.3,0.5,0.5,1.2,0.5,2.1c0,0.7-0.2,1.4-0.6,2c-0.7,1-1.3,1.4-2,1.4c-0.7,0-1.4-0.2-2.2-0.7l0.1-0.2c0.4,0.2,0.7,0.3,1.1,0.3
		c0.8,0,1.5-0.4,2.2-1.2c0.3-0.4,0.7-0.8,0.7-1.3C439.4,441.6,439.1,441.6,438.7,441.6z M438.4,439.2c-0.4,0-0.9,0.4-0.9,0.7
		c0,0.5,0.7,0.8,1.3,0.8c0.3,0,0.6,0,0.9-0.1C439.5,439.8,439.1,439.2,438.4,439.2z"/>
	<path class="st2" d="M444.1,438.5l0.5,1c0.2,0.4,0.4,0.8,0.4,1.4v0.8c0,0.7-0.4,1.4-1,2.1c-0.5,0.5-0.9,0.7-1.3,0.7
		c-0.6,0-1.2-0.2-2-0.6l0.1-0.3c0.2,0.1,0.5,0.1,0.8,0.1c1.1,0,2.2-0.9,2.7-2.1c0.1-0.1,0.1-0.3,0.1-0.3c0-0.1-0.1-0.3-0.1-0.4
		c-0.3-0.6-0.6-1.2-0.9-1.7C443.7,439.1,443.9,438.8,444.1,438.5L444.1,438.5z"/>
	<path class="st2" d="M448.9,441.6c-0.9,0-1.7-0.4-1.7-1.4c0-0.5,0.2-0.9,0.5-1.3c0.3-0.4,0.7-0.6,1.1-0.6c0.4,0,0.9,0.3,1.1,0.9
		c0.3,0.5,0.5,1.2,0.5,2.1c0,0.7-0.2,1.4-0.6,2c-0.7,1-1.3,1.4-2,1.4c-0.7,0-1.4-0.2-2.2-0.7l0.1-0.2c0.4,0.2,0.7,0.3,1.1,0.3
		c0.8,0,1.5-0.4,2.2-1.2c0.3-0.4,0.7-0.8,0.7-1.3C449.5,441.6,449.2,441.6,448.9,441.6z M448.5,439.2c-0.4,0-0.9,0.4-0.9,0.7
		c0,0.5,0.7,0.8,1.3,0.8c0.3,0,0.6,0,0.9-0.1C449.6,439.8,449.2,439.2,448.5,439.2z"/>
	<path class="st2" d="M453.5,433.9c-0.1,0.2-0.2,0.4-0.3,0.5c-0.8,0.1-1.4,0.3-2,0.6l0,0l0.2-0.3c0.1-0.1,0.2-0.2,0.3-0.3v0
		c-0.4-0.1-0.6-0.3-0.6-0.7c0-0.2,0.1-0.5,0.4-0.7c0.3-0.2,0.6-0.4,0.9-0.4c0.3,0,0.5,0.2,0.5,0.4c0,0.2-0.1,0.3-0.2,0.5h0
		c-0.1-0.2-0.2-0.3-0.2-0.3c-0.1,0-0.1,0-0.2,0c-0.3,0-0.5,0.2-0.5,0.3c0,0.4,0.6,0.5,1.1,0.5C453,433.9,453.2,433.9,453.5,433.9
		L453.5,433.9z M456.1,434.6c0,0.1,0,0.1,0,0.2c0,0.4,0.3,1,0.6,1.5c-0.1,0.1-0.3,0.3-0.5,0.4c0,0.9,0.1,1.8,0.1,2.7
		c0,0.5-0.1,1.1-0.3,1.5c-0.2,0.6-0.4,1-0.8,1.3c-0.5,0.4-1.3,0.6-1.9,0.6c-0.7,0-1.4-0.2-1.9-0.3v-0.1c1.5-0.2,2.6-0.5,3.4-1
		c0-0.3-0.4-0.9-0.9-1.6c-0.5-0.7-1-1.5-1.7-2.4c-0.5-0.7-0.8-1.2-0.8-1.4c0-0.2,0.3-0.6,0.3-0.7l0,0c0.3,0.4,0.7,0.8,1.2,1.3
		l-0.2,0.4c0.7,1.1,1.4,2.1,1.8,2.9c0.2,0.4,0.3,0.8,0.3,1.3l0,0c0.3-0.3,0.6-0.7,0.6-1.4c0-0.8-0.1-1.7-0.2-3.1
		c0-0.3-0.1-0.8-0.1-1.2c0-0.2,0.1-0.4,0.2-0.5C455.7,434.9,455.9,434.7,456.1,434.6L456.1,434.6z"/>
	<path class="st2" d="M458,442.5c0.1-0.5,0.1-1,0.1-1.5v-0.7c0-1.4-0.2-3.4-0.3-4.7c0.2-0.3,0.5-0.6,0.7-0.8l0.1,0
		c0.2,1.7,0.2,3.6,0.2,5.3c0,0.5,0,0.9-0.1,1.3C458.7,441.8,458.5,442.1,458,442.5L458,442.5z"/>
	<path class="st2" d="M464.7,441.7c-0.8,0-1.4-0.3-1.4-0.9c0-0.2,0.1-0.5,0.3-0.9c0.3-0.7,1.1-1.4,2.4-2.1l0-0.6
		c0.2-0.2,0.4-0.4,0.6-0.6h0.1c0,1.2,0,2.4,0,3.5c0,0.5,0.1,0.9,0.3,1.1c0.2,0.2,0.5,0.2,0.8,0.2h0.2v1h-0.2c-0.7,0-1.3-0.2-1.6-1.1
		C465.8,441.5,465.3,441.7,464.7,441.7z M466,438.6c-1.4,0.7-2.1,1.3-2.1,1.7c0,0.3,0.5,0.4,1,0.4c0.3,0,0.7-0.1,1.1-0.2L466,438.6z
		 M465.1,436c-0.3-0.3-0.6-0.5-0.9-0.8c0.2-0.3,0.4-0.5,0.6-0.7c0.3,0.2,0.6,0.5,0.9,0.8C465.5,435.6,465.3,435.8,465.1,436z
		 M466.6,435.9c-0.3-0.3-0.6-0.5-0.9-0.8c0.2-0.3,0.4-0.5,0.6-0.7c0.3,0.2,0.6,0.5,0.9,0.8C467,435.5,466.8,435.7,466.6,435.9z"/>
	<path class="st2" d="M468.1,441.4c0.8,0,1.1-0.4,1.3-1.1c0.3-0.9,0.9-1.4,1.4-1.4c0.4,0,0.7,0.1,0.9,0.5c0.2,0.3,0.3,0.6,0.8,1.4
		c0.2,0.4,0.6,0.6,1.2,0.6h0.1v1h-0.1c-0.4,0-0.9-0.2-1.2-0.7h0c0,0.2-0.1,0.4-0.2,0.6c-0.2,0.2-0.3,0.3-0.5,0.3
		c-0.6,0-1.5-0.4-2.2-1.1h0c-0.2,0.5-0.7,0.9-1.5,0.9h-0.1c-0.4,0-0.5-0.3-0.5-0.5c0-0.2,0.1-0.5,0.5-0.5H468.1z M470.7,441.3
		c0.3,0.2,0.8,0.3,1,0.3c0.1,0,0.3,0,0.3-0.2c0-0.3-0.2-0.7-0.4-1c-0.3-0.4-0.6-0.7-1-0.7c-0.4,0-0.7,0.3-0.9,0.7
		C469.9,440.7,470.4,441.1,470.7,441.3z"/>
	<path class="st2" d="M479.7,442.4h-0.2c-0.9,0-1.4-0.5-2-1.2c-0.3-0.3-0.5-0.6-0.7-0.8h0c0,1.2-0.7,2.1-2.8,2.1h-0.2
		c-0.4,0-0.5-0.3-0.5-0.5c0-0.2,0.1-0.5,0.5-0.5h0.3c0.6,0,1.3-0.1,1.8-0.4c0.2-0.1,0.4-0.3,0.4-0.4c0-0.2-0.1-0.3-0.2-0.5
		c-0.3-0.7-1.1-1.5-1.9-2.3c-0.2-0.2-0.4-0.4-0.5-0.5c0-0.1-0.1-0.3-0.1-0.4c0-0.2,0.1-0.4,0.2-0.7c0.1-0.1,0.2-0.2,0.3-0.3
		c0.8-0.5,2.6-1.1,4.7-1.8l0,0c-0.2,0.3-0.4,0.6-0.6,0.9c-0.5,0.1-1.1,0.3-1.7,0.6c-0.9,0.3-1.8,0.7-2.3,1v0
		c0.4,0.3,0.9,0.5,1.2,0.6l-0.2,0.4c0.8,0.7,1.8,1.8,2.8,3c0.4,0.5,0.9,0.8,1.5,0.8h0.1V442.4z"/>
	<path class="st2" d="M484.2,440c-0.9-0.3-1.7-0.5-2.4-0.5c-0.4,0-0.8,0.1-1,0.4l0.1,0.4l-0.2,0.7h-0.1l-0.4-1
		c0.1-0.8,0.7-1.4,1.6-1.4c0.5,0,1.3,0.2,2.5,0.7c0.4,0.1,0.8,0.3,1.3,0.3h0.7l0,0l-0.5,0.8c-0.6,0-1,0.1-1.3,0.3l-1.3,0.8
		c-1.1,0.7-2.1,1-3.3,1h-0.3c-0.4,0-0.5-0.3-0.5-0.5c0-0.2,0.1-0.5,0.5-0.5h0.5C481.4,441.4,482.6,441,484.2,440L484.2,440z
		 M485.1,440.5L485.1,440.5c0.1,0.7,0.6,0.9,1.4,0.9h0.2v1h-0.2c-1,0-1.6-0.3-1.6-1.3c0-0.1,0-0.3,0-0.4L485.1,440.5z"/>
	<path class="st2" d="M488.5,441.7c-0.5,0.4-1,0.7-1.7,0.7h-0.1c-0.4,0-0.5-0.3-0.5-0.5c0-0.2,0.1-0.5,0.5-0.5h0.1
		c0.8,0,1.3-0.2,1.7-0.5c-0.1-1.5-0.2-3-0.2-4.2c0-0.3-0.1-0.8-0.1-1.1c0-0.3,0.1-0.5,0.2-0.7c0.1-0.1,0.3-0.3,0.4-0.4l0.1,0
		c0,0.1,0,0.2,0,0.3c0,0.5,0.3,1,0.6,1.6l-0.6,0.4c0,2.4,0,3,0.1,3.7l0,0c0.3-0.2,0.6-0.3,1-0.3c0.3,0,0.6,0.2,0.9,0.4
		c0.2,0.3,0.4,0.7,0.4,1c0,0.9-0.6,1.5-1.2,1.5C489.4,443.2,488.8,442.6,488.5,441.7L488.5,441.7z M490.4,442.3
		c0.1,0,0.3-0.1,0.4-0.1c0-0.3-0.1-0.5-0.3-0.7c-0.1-0.2-0.4-0.3-0.7-0.3c-0.2,0-0.4,0.1-0.6,0.2
		C489.4,441.9,489.9,442.3,490.4,442.3z"/>
	<path class="st2" d="M492.7,442.5c0.1-0.5,0.1-1,0.1-1.5v-0.7c0-1.4-0.2-3.4-0.3-4.7c0.2-0.3,0.5-0.6,0.7-0.8l0.1,0
		c0.2,1.7,0.2,3.6,0.2,5.3c0,0.5,0,0.9-0.1,1.3C493.4,441.8,493.2,442.1,492.7,442.5L492.7,442.5z"/>
	<path class="st2" d="M503.4,439.8c-0.2,0.1-0.5,0.1-0.8,0.1c-0.8,0-1.5-0.2-1.7-0.8c-0.1-0.2-0.1-0.3-0.1-0.5
		c0-0.5,0.2-1.1,0.5-1.4c0.3-0.3,0.6-0.5,0.9-0.5c0.6,0,1,0.5,1.4,1.4c0.2,0.5,0.3,1.1,0.3,1.8c0,0.4-0.1,0.8-0.3,1.1
		c0.7,0.2,0.8,0.5,0.8,1c0,0.3-0.1,0.6-0.2,0.9c-0.2,0.3-0.5,0.6-0.9,0.9c-0.8,0.5-1.6,0.8-2.6,0.8c-0.8,0-1.4-0.3-1.9-0.7
		c-0.5-0.5-0.8-1.2-0.8-2c0-0.9,0.2-1.7,0.5-2.4l0.3,0.1c-0.2,0.6-0.3,1.1-0.3,1.6c0,0.5,0.1,1,0.4,1.5c0.4,0.5,1,0.9,1.8,0.9
		c0.9,0,1.5-0.2,2.2-0.6c0.5-0.3,0.8-0.5,1-0.8c0-0.3-1.4-0.6-2.7-0.6l0-0.1l0.3-0.8c1.2-0.1,1.9-0.4,1.9-0.8
		C503.4,440,503.4,439.9,503.4,439.8z M500.5,446.9c-0.3-0.3-0.6-0.5-0.9-0.8c0.2-0.3,0.4-0.5,0.6-0.7c0.3,0.2,0.6,0.5,0.9,0.8
		C500.8,446.5,500.7,446.7,500.5,446.9z M501.9,446.8c-0.3-0.3-0.6-0.5-0.9-0.8c0.2-0.3,0.4-0.5,0.6-0.7c0.3,0.2,0.6,0.5,0.9,0.8
		C502.3,446.4,502.1,446.6,501.9,446.8z M501.9,434.4c0.3,0.2,0.6,0.5,0.9,0.8c-0.2,0.3-0.4,0.5-0.6,0.7c-0.3-0.3-0.6-0.5-0.9-0.8
		C501.5,434.9,501.7,434.6,501.9,434.4z M502.1,437.7c-0.5,0-0.9,0.4-0.9,0.7c0,0.4,0.7,0.7,1.4,0.7c0.2,0,0.4,0,0.6,0
		C503.1,438.1,502.6,437.7,502.1,437.7z"/>
	<path class="st2" d="M511.1,438.6c0.4,0.3,0.8,0.7,1.2,1.1c0.4,0.4,0.6,0.8,0.9,1.2c0.2,0.3,0.7,0.5,1.1,0.5h0.1v1h-0.2
		c-0.6,0-0.9-0.2-1.3-0.7l0,0c-0.1,0.6-0.5,1.1-1,1.1c-1,0-1.9-1-1.9-2.4c-0.6,0.5-0.9,0.9-0.9,1.2c0,0.3,0.1,0.8,0.4,1.7
		c0.4,1.3,0.8,2.5,0.8,2.9c0,0.4-0.1,0.8-0.2,1.1h-0.1c-0.2-0.8-0.5-1.8-0.8-2.7c-0.4-1-0.6-1.9-0.6-2.4c0-0.3,0.1-0.6,0.1-0.9
		c0.1-0.5,0.4-1,0.8-1.3C510.1,439.5,510.7,439,511.1,438.6L511.1,438.6z M510.6,440.2c0,0.5,0.2,0.9,0.6,1.2
		c0.2,0.2,0.5,0.4,0.9,0.4c0.3,0,0.5-0.1,0.5-0.3c0-0.1-0.1-0.3-0.3-0.6c-0.3-0.4-0.6-0.8-1.3-1.3
		C510.9,439.8,510.6,440,510.6,440.2z"/>
	<path class="st2" d="M520.3,442.4h-0.2c-0.9,0-1.4-0.5-2-1.2c-0.3-0.3-0.5-0.6-0.7-0.8h0c0,1.2-0.7,2.1-2.8,2.1h-0.2
		c-0.4,0-0.5-0.3-0.5-0.5c0-0.2,0.1-0.5,0.5-0.5h0.3c0.6,0,1.3-0.1,1.8-0.4c0.2-0.1,0.4-0.3,0.4-0.4c0-0.2-0.1-0.3-0.2-0.5
		c-0.3-0.7-1.1-1.5-1.9-2.3c-0.2-0.2-0.4-0.4-0.5-0.5c0-0.1-0.1-0.3-0.1-0.4c0-0.2,0.1-0.4,0.2-0.7c0.1-0.1,0.2-0.2,0.3-0.3
		c0.8-0.5,2.6-1.1,4.7-1.8l0,0c-0.2,0.3-0.4,0.6-0.6,0.9c-0.5,0.1-1.1,0.3-1.7,0.6c-0.9,0.3-1.8,0.7-2.3,1v0
		c0.4,0.3,0.9,0.5,1.2,0.6l-0.2,0.4c0.8,0.7,1.8,1.8,2.8,3c0.4,0.5,0.9,0.8,1.5,0.8h0.1V442.4z"/>
	<path class="st2" d="M524.9,440c-0.9-0.3-1.7-0.5-2.4-0.5c-0.4,0-0.8,0.1-1,0.4l0.1,0.4l-0.2,0.7h-0.1l-0.4-1
		c0.1-0.8,0.7-1.4,1.6-1.4c0.5,0,1.3,0.2,2.5,0.7c0.4,0.1,0.8,0.3,1.3,0.3h0.7l0,0l-0.5,0.8c-0.6,0-1,0.1-1.3,0.3l-1.3,0.8
		c-1.1,0.7-2.1,1-3.3,1h-0.3c-0.4,0-0.5-0.3-0.5-0.5c0-0.2,0.1-0.5,0.5-0.5h0.5C522,441.4,523.3,441,524.9,440L524.9,440z
		 M525.7,440.5L525.7,440.5c0.1,0.7,0.6,0.9,1.4,0.9h0.2v1H527c-1,0-1.6-0.3-1.6-1.3c0-0.1,0-0.3,0-0.4L525.7,440.5z"/>
	<path class="st2" d="M527.4,441.4c0.6,0,1-0.4,1.3-1.3c0.1-0.3,0.3-0.6,0.6-0.9c0.3-0.3,0.6-0.4,1-0.4c0.9,0,1.5,1.3,1.6,2.6
		c-0.2,0.7-0.4,1-0.8,1c-0.8,0-1.5-0.3-2.3-0.9h-0.1c-0.2,0.7-0.6,1-1.3,1h-0.1c-0.4,0-0.5-0.3-0.5-0.5c0-0.2,0.1-0.5,0.5-0.5H527.4
		z M530.1,441.1c0.3,0.1,0.6,0.2,0.9,0.2c0.1,0,0.2,0,0.2-0.1c-0.2-1.1-0.7-1.7-1.2-1.7c-0.4,0-0.8,0.2-1,0.7
		C529.3,440.7,529.6,440.9,530.1,441.1z"/>
	<path class="st2" d="M536.5,440.3c0,0.7,0.3,1.2,1.2,1.2c0.6,0,1.1-0.2,1.6-0.5c0.1-0.1,0.2-0.1,0.2-0.2c0-0.4-0.3-1-0.7-1.4
		c-0.4-0.5-1-0.9-1.6-1.1c-0.2-0.1-0.2-0.2-0.2-0.3c0-0.2,0.2-0.6,0.4-0.9l0.1,0c0.6,0.4,1.3,0.9,1.8,1.6c0.5,0.6,0.8,1.2,0.8,1.8
		c0,0.5-0.1,0.9-0.3,1.3c-0.7,0.4-1.4,0.7-2.1,0.7c-0.9,0-1.5-0.5-1.5-1.6c0-0.1,0-0.3,0-0.6H536.5z"/>
	<path class="st2" d="M541.5,442.5c0.1-0.5,0.1-1,0.1-1.5v-0.7c0-1.4-0.2-3.4-0.3-4.7c0.2-0.3,0.5-0.6,0.7-0.8l0.1,0
		c0.2,1.7,0.2,3.6,0.2,5.3c0,0.5,0,0.9-0.1,1.3C542.2,441.8,542,442.1,541.5,442.5L541.5,442.5z"/>
	<path class="st2" d="M548.9,442.4h-0.1c-0.7,0-1.3-0.3-1.5-1.2h0c-0.1,0.3-0.2,0.5-0.5,0.7c-0.5,0.3-1,0.5-1.5,0.5
		c-0.9,0-1.3-0.5-1.3-1.4c0-0.2,0-0.4,0-0.6l0.3,0c0,0.6,0.3,1,1.1,1c0.4,0,0.9-0.2,1.2-0.4c0.3-0.2,0.5-0.4,0.5-0.6
		c0-0.5-0.3-1.5-0.6-2.8c0.2-0.3,0.3-0.5,0.5-0.8l0,0c0.3,1.1,0.5,2.3,0.7,3.4c0.1,0.8,0.6,1.1,1.2,1.1h0.1V442.4z"/>
	<path class="st2" d="M549.4,441.4c0.3,0,0.7,0,1.1-0.2v0c-0.5-0.3-0.9-0.8-0.9-1.5c0-0.3,0.1-0.7,0.3-1c0.4-0.6,0.9-1,1.6-1
		c0.7,0,1.3,0.5,1.7,1.2l-0.1,0.2c-0.4-0.3-0.8-0.5-1.4-0.5c-0.8,0-1.4,0.4-1.4,0.6c0,0.4,0.2,0.7,0.7,1.1c0.3,0.2,0.7,0.4,0.9,0.4
		c0.6,0,1.3-0.2,2.2-0.5l0,0l-0.4,0.9c-1.2,0.4-1.8,0.5-2.7,0.8c-0.7,0.2-1.2,0.4-1.9,0.4h-0.2c-0.4,0-0.5-0.3-0.5-0.5
		c0-0.2,0.1-0.5,0.5-0.5H549.4z"/>
	<path class="st2" d="M557.1,444.2c-0.1,0.2-0.2,0.4-0.3,0.5c-0.8,0.1-1.4,0.3-2,0.6l0,0l0.2-0.3c0.1-0.1,0.2-0.2,0.3-0.3v0
		c-0.4-0.1-0.6-0.3-0.6-0.7c0-0.2,0.1-0.5,0.4-0.7c0.3-0.2,0.6-0.4,0.9-0.4c0.3,0,0.5,0.2,0.5,0.4c0,0.2-0.1,0.3-0.2,0.5h0
		c-0.1-0.2-0.2-0.3-0.2-0.3c-0.1,0-0.1,0-0.2,0c-0.3,0-0.5,0.2-0.5,0.3c0,0.4,0.6,0.5,1.1,0.5C556.6,444.3,556.9,444.2,557.1,444.2
		L557.1,444.2z M555.6,442.5c0.1-0.5,0.1-1,0.1-1.5v-0.7c0-1.4-0.2-3.4-0.3-4.7c0.2-0.3,0.5-0.6,0.7-0.8l0.1,0
		c0.2,1.7,0.2,3.6,0.2,5.3c0,0.5,0,0.9-0.1,1.3C556.3,441.8,556.1,442.1,555.6,442.5L555.6,442.5z"/>
</g>
</svg>
