<?xml version="1.0" encoding="utf-8"?>
<!-- Generator: Adobe Illustrator 25.1.0, SVG Export Plug-In . SVG Version: 6.00 Build 0)  -->
<svg version="1.1" id="Layer_1" xmlns="http://www.w3.org/2000/svg" xmlns:xlink="http://www.w3.org/1999/xlink" x="0px" y="0px"
	 viewBox="0 0 200 200" style="enable-background:new 0 0 200 200;" xml:space="preserve">
<style type="text/css">
	.st0{fill:none;stroke:#000000;stroke-width:1.0931;stroke-miterlimit:10;}
</style>
<path class="st0" d="M169.1,109.4c-0.1-0.1-9.1-10.6-9.2-10.8c0,0-0.4-0.5-0.4-0.5c9.3-12.6,13.9-19,13.8-19.1
	c-0.1-0.1-6.9,8.5-20.2,25.9c-8.5,8.6-17,17.2-25.5,25.9c-3.5,2.6-8.3,7-12.8,13.5c-0.9,1.4-3,4.6-5,8.9c-2.2,4.8-5.4,13.6-5.6,25.9
	"/>
<line class="st0" x1="114.9" y1="55.5" x2="102.1" y2="18.4"/>
<line class="st0" x1="43.7" y1="80.2" x2="26.7" y2="48.7"/>
<path class="st0" d="M8.1,86.4c22.1,7.4,40.9,8.3,53.1,7.9c17-0.6,44.2-1.5,69.1-21.4c14.7-11.7,23.1-25.7,27.6-34.8"/>
<path class="st0" d="M133.5,189.8l-30.8-48.3c10.4-6.4,23.9-13.5,40.4-19.1c18.9-6.5,35.8-9.1,48.9-10.1"/>
<path class="st0" d="M103.7,140.4c0,0-7.8,4.7-15.9,13.5c-8.6,9.3-12.8,18-12.8,18c0,0,4.6-9.4,13.8-19.1
	C96.6,144.7,103.7,140.4,103.7,140.4z"/>
<path class="st0" d="M51.6,95.5c3.6,1.2,7.3,2.4,10.9,3.6c4.2,1.8,8.8,4.2,13.5,7.7c14.9,10.9,24.3,28.9,27.6,37.1"/>
<line class="st0" x1="43.4" y1="40.8" x2="85.9" y2="43.1"/>
<line class="st0" x1="118.6" y1="22.3" x2="114.4" y2="32.4"/>
<line class="st0" x1="108" y1="33.6" x2="114.4" y2="32.4"/>
<line class="st0" x1="84.6" y1="43.7" x2="108" y2="33.6"/>
<path class="st0" d="M135.6,62.8l-49.7-20c-8.3,4-18.3,10.3-27.9,20c-3.6,3.7-11.7,12.1-17,23.6c-0.2,0.3,4.5,6.2,1.1,15.7
	c-2,5.5,15.9-7.9,3.2,1.1c-0.9,0.7-8.2,7.2,0.5,0.5c3-2.4,6-4.8,9-7.3"/>
<line class="st0" x1="43.5" y1="120.8" x2="40.2" y2="51"/>
<line class="st0" x1="115.4" y1="56" x2="129.2" y2="72.9"/>
<line class="st0" x1="130.3" y1="74" x2="157.9" y2="97.6"/>
</svg>
