<?xml version="1.0" encoding="utf-8"?>
<!-- Generator: Adobe Illustrator 25.2.0, SVG Export Plug-In . SVG Version: 6.00 Build 0)  -->
<svg version="1.1" id="Layer_1" xmlns="http://www.w3.org/2000/svg" xmlns:xlink="http://www.w3.org/1999/xlink" x="0px" y="0px"
	 viewBox="0 0 200 200" style="enable-background:new 0 0 200 200;" xml:space="preserve">
<style type="text/css">
	.st0{opacity:0.4;fill:#D3D3D3;stroke:#000000;stroke-miterlimit:10;}
	.st1{opacity:0.4;fill:#D3D3D3;stroke:#000000;stroke-width:0.2512;stroke-miterlimit:10;}
</style>
<path class="st0" d="M44.3,137.6c8.7-8.7,7.3-23.2,7-26c-1.4-13.6-8.1-15.9-17-35c-5.9-12.8-14.3-30.8-7.3-40c3-4,11.5-5,28.3-7
	c14-1.6,21-2.7,30-1c13.5,2.5,17.2,7.2,24,5c11.4-3.8,10.9-20.6,17-22c6.2-1.4,18.6,13.3,46,84c11.9-3.6,22.3-1.9,26,4
	c2.1,3.4,2.5,9.1,0,11c-2.9,2.2-7.4-2.6-13-3c-12.9-1-28.2,21.8-35,44c-7,22.9-3.8,41.7-10,43c-4.2,0.9-6.7-7.7-15-10
	c-9.9-2.8-20.9,5.3-29,13c-7.8-1.9-18.1-5.9-25-15c-6.5-8.6-3.9-13.7-10-21c-11.8-13.9-35-11.2-35-15C26.3,144,36.8,145,44.3,137.6z
	"/>
<path class="st0" d="M78.3,57.6c2,9.1,6.9,25.6,20,42c16.3,20.3,36.1,28.8,45,32"/>
<path class="st0" d="M144.8,182.3c-4.6-2.6-11.3-7-18.1-13.7c-14.9-14.6-16.8-26.7-25.5-37c-7.3-8.7-21.1-18.3-50-20"/>
<path class="st0" d="M133.3,51.6c-5.4,2.1-17.1,6-32,4c-16.5-2.2-27.6-10.3-32-14"/>
<path class="st0" d="M144.3,66.6c3.6,3.7,8.7,10,12,19c3.6,9.9,5.3,23.7,2,25c-4,1.5-15.5-15.1-21-32c-3.5-10.8-4.1-20.4-4-27"/>
<path class="st0" d="M54.3,96.6c0-15.7,0-31.3,0-47"/>
<path class="st0" d="M120.3,178.6c-45.2-44.4-56.3-55.7-56-56c0.1-0.1,2.3,2.2,38.2,36.6C116.7,172.9,121.2,177.1,120.3,178.6
	c-1.1,1.7-9.8-0.3-46-19"/>
<path class="st0" d="M119.3,82.6"/>
<path class="st0" d="M141.3,123.6"/>
<path class="st0" d="M75.3,93.6"/>
<path class="st0" d="M136.3,148.6"/>
<path class="st0" d="M108.3,126.6"/>
<path class="st0" d="M55.3,143.6"/>
<path class="st1" d="M115.2,73.1c0,0-0.9,0-2.1,0c-1.1,0-2.1,0-2.1,0c0,0,0.9,0,2.1,0C114.3,73.1,115.2,73.1,115.2,73.1z"/>
<path class="st1" d="M51.3,68.3c0,0-0.9,0-2.1,0c-1.1,0-2.1,0-2.1,0c0,0,0.9,0,2.1,0C50.3,68.3,51.3,68.3,51.3,68.3z"/>
<path class="st1" d="M117.3,40.2c0,0-0.9,0-2.1,0c-1.1,0-2.1,0-2.1,0s0.9,0,2.1,0C116.3,40.2,117.3,40.2,117.3,40.2z"/>
<path class="st1" d="M184.2,102.3c0,0-0.9,0-2.1,0c-1.1,0-2.1,0-2.1,0c0,0,0.9,0,2.1,0C183.3,102.3,184.2,102.3,184.2,102.3z"/>
<path class="st1" d="M53.3,143.6c0,0-0.9,0-2.1,0s-2.1,0-2.1,0s0.9,0,2.1,0S53.3,143.6,53.3,143.6z"/>
<path class="st1" d="M103.3,35.3c0,0-0.9,0-2.1,0c-1.1,0-2.1,0-2.1,0s0.9,0,2.1,0C102.4,35.3,103.3,35.3,103.3,35.3z"/>
<path class="st1" d="M133.2,147c0,0-0.9,0-2.1,0c-1.1,0-2.1,0-2.1,0c0,0,0.9,0,2.1,0C132.3,147,133.2,147,133.2,147z"/>
<path class="st1" d="M71.3,96.6c0,0-0.9,0-2.1,0c-1.1,0-2.1,0-2.1,0c0,0,0.9,0,2.1,0C70.4,96.6,71.3,96.6,71.3,96.6z"/>
<path class="st1" d="M133.2,102.3c0,0-0.9,0-2.1,0c-1.1,0-2.1,0-2.1,0s0.9,0,2.1,0C132.3,102.3,133.2,102.3,133.2,102.3z"/>
<path class="st0" d="M-158.9-91.7"/>
<path class="st0" d="M360.1,170.3"/>
</svg>
